<?xml version="1.0" encoding="UTF-8"?>
<svg xmlns="http://www.w3.org/2000/svg" viewBox="0 0 1064.27 252.71">
  <defs>
    <style>
      .cls-1 {
        fill: #b095c1;
        stroke-width: 0px;
      }
    </style>
  </defs>
  <g id="Sheltr">
    <g>
      <path class="cls-1" d="m356.58,237.93c-16.2,0-30.1-3-41.7-9-11.6-6-21.9-14.7-30.9-26.1l19.2-19.2c6.6,9.2,14.2,16.15,22.8,20.85,8.6,4.7,19.2,7.05,31.8,7.05s22.35-2.7,29.85-8.1,11.25-12.8,11.25-22.2c0-7.8-1.85-14.1-5.55-18.9-3.7-4.8-8.55-8.75-14.55-11.85-6-3.1-12.6-5.85-19.8-8.25-7.2-2.4-14.4-5.05-21.6-7.95-7.2-2.9-13.85-6.55-19.95-10.95-6.1-4.4-10.95-10.05-14.55-16.95-3.6-6.9-5.4-15.75-5.4-26.55,0-11.8,2.85-21.85,8.55-30.15,5.7-8.3,13.5-14.7,23.4-19.2,9.9-4.5,21.05-6.75,33.45-6.75,13.6,0,25.8,2.65,36.6,7.95,10.8,5.3,19.6,12.25,26.4,20.85l-19.2,19.2c-6.2-7.2-12.85-12.6-19.95-16.2-7.1-3.6-15.25-5.4-24.45-5.4-11.2,0-20.1,2.45-26.7,7.35-6.6,4.9-9.9,11.75-9.9,20.55,0,7,1.85,12.65,5.55,16.95,3.7,4.3,8.55,7.95,14.55,10.95s12.65,5.75,19.95,8.25c7.3,2.5,14.55,5.25,21.75,8.25,7.2,3,13.8,6.8,19.8,11.4,6,4.6,10.85,10.55,14.55,17.85,3.7,7.3,5.55,16.45,5.55,27.45,0,18.4-6.35,32.8-19.05,43.2-12.7,10.4-29.95,15.6-51.75,15.6Z"/>
      <path class="cls-1" d="m460.68,234.93V20.73h27v214.2h-27Zm100.5,0v-83.1c0-10.8-3.35-19.7-10.05-26.7-6.7-7-15.45-10.5-26.25-10.5-7.2,0-13.6,1.6-19.2,4.8-5.6,3.2-10,7.6-13.2,13.2-3.2,5.6-4.8,12-4.8,19.2l-11.1-6.3c0-10.8,2.4-20.4,7.2-28.8,4.8-8.4,11.5-15.05,20.1-19.95,8.6-4.9,18.3-7.35,29.1-7.35s20.35,2.4,28.65,7.2c8.3,4.8,14.85,11.5,19.65,20.1,4.8,8.6,7.2,18.5,7.2,29.7v88.5h-27.3Z"/>
      <path class="cls-1" d="m691.08,237.93c-14.4,0-27.25-3.25-38.55-9.75-11.3-6.5-20.25-15.35-26.85-26.55-6.6-11.2-9.9-23.9-9.9-38.1s3.25-26.6,9.75-37.8c6.5-11.2,15.3-20.05,26.4-26.55,11.1-6.5,23.55-9.75,37.35-9.75,13,0,24.6,3,34.8,9s18.15,14.3,23.85,24.9c5.7,10.6,8.55,22.7,8.55,36.3,0,2-.1,4.15-.3,6.45-.2,2.3-.6,4.85-1.2,7.65h-120.3v-22.5h105.9l-9.9,8.7c0-9.6-1.7-17.75-5.1-24.45-3.4-6.7-8.2-11.9-14.4-15.6-6.2-3.7-13.7-5.55-22.5-5.55s-17.3,2-24.3,6c-7,4-12.4,9.6-16.2,16.8-3.8,7.2-5.7,15.7-5.7,25.5s2,18.75,6,26.25c4,7.5,9.7,13.3,17.1,17.4,7.4,4.1,15.9,6.15,25.5,6.15,8,0,15.35-1.4,22.05-4.2,6.7-2.8,12.45-7,17.25-12.6l17.4,17.7c-7,8-15.4,14.1-25.2,18.3-9.8,4.2-20.3,6.3-31.5,6.3Z"/>
      <path class="cls-1" d="m785.87,234.93V20.73h27v214.2h-27Z"/>
      <path class="cls-1" d="m839.27,117.03v-24.6h97.2v24.6h-97.2Zm35.1,117.9V32.73h27v202.2h-27Z"/>
      <path class="cls-1" d="m962.87,234.93V92.43h27v142.5h-27Zm27-81l-10.2-4.8c0-18.2,4.2-32.7,12.6-43.5,8.4-10.8,20.5-16.2,36.3-16.2,7.2,0,13.7,1.25,19.5,3.75,5.8,2.5,11.2,6.65,16.2,12.45l-17.7,18.3c-3-3.2-6.3-5.5-9.9-6.9-3.6-1.4-7.8-2.1-12.6-2.1-10,0-18.2,3.2-24.6,9.6-6.4,6.4-9.6,16.2-9.6,29.4Z"/>
    </g>
  </g>
  <g id="Logo">
    <path class="cls-1" d="m112.91,0h-1.59C49.84,0,0,49.84,0,111.32v125.5c0,8.78,7.12,15.9,15.9,15.9h192.42c8.78,0,15.9-7.12,15.9-15.9v-125.5C224.22,49.84,174.39,0,112.91,0Zm60.43,201.83H52.48v-87.46c0-33.37,27.05-60.43,60.43-60.43h0c33.37,0,60.43,27.06,60.43,60.43v87.46Z"/>
  </g>
</svg>